<svg width="9" height="9" viewBox="0 0 9 9" fill="none" xmlns="http://www.w3.org/2000/svg">
<g id="mdi:clock-outline" clip-path="url(#clip0_29_1125)">
<path id="Vector" d="M4.5 7.5C5.29565 7.5 6.05871 7.18393 6.62132 6.62132C7.18393 6.05871 7.5 5.29565 7.5 4.5C7.5 3.70435 7.18393 2.94129 6.62132 2.37868C6.05871 1.81607 5.29565 1.5 4.5 1.5C3.70435 1.5 2.94129 1.81607 2.37868 2.37868C1.81607 2.94129 1.5 3.70435 1.5 4.5C1.5 5.29565 1.81607 6.05871 2.37868 6.62132C2.94129 7.18393 3.70435 7.5 4.5 7.5ZM4.5 0.75C4.99246 0.75 5.48009 0.846997 5.93506 1.03545C6.39003 1.22391 6.80343 1.50013 7.15165 1.84835C7.49987 2.19657 7.77609 2.60997 7.96455 3.06494C8.153 3.51991 8.25 4.00754 8.25 4.5C8.25 5.49456 7.85491 6.44839 7.15165 7.15165C6.44839 7.85491 5.49456 8.25 4.5 8.25C2.42625 8.25 0.75 6.5625 0.75 4.5C0.75 3.50544 1.14509 2.55161 1.84835 1.84835C2.55161 1.14509 3.50544 0.75 4.5 0.75ZM4.6875 2.625V4.59375L6.375 5.595L6.09375 6.05625L4.125 4.875V2.625H4.6875Z" fill="black"/>
</g>
<defs>
<clipPath id="clip0_29_1125">
<rect width="9" height="9" fill="white"/>
</clipPath>
</defs>
</svg>
