<svg width="19" height="19" viewBox="0 0 19 19" fill="none" xmlns="http://www.w3.org/2000/svg">
<g id="ic:baseline-delivery-dining">
<path id="Vector" d="M15.0417 5.54166C15.0417 4.67083 14.3292 3.95833 13.4584 3.95833H11.0834V5.54166H13.4584V7.63958L10.7034 11.0833H7.91671V7.12499H4.75004C3.00046 7.12499 1.58337 8.54208 1.58337 10.2917V12.6667H3.16671C3.16671 13.9808 4.22754 15.0417 5.54171 15.0417C6.85587 15.0417 7.91671 13.9808 7.91671 12.6667H11.4634L15.0417 8.19375V5.54166ZM5.54171 13.4583C5.10629 13.4583 4.75004 13.1021 4.75004 12.6667H6.33337C6.33337 13.1021 5.97712 13.4583 5.54171 13.4583Z" fill="black"/>
<path id="Vector_2" d="M3.95837 4.75H7.91671V6.33333H3.95837V4.75ZM15.0417 10.2917C13.7275 10.2917 12.6667 11.3525 12.6667 12.6667C12.6667 13.9808 13.7275 15.0417 15.0417 15.0417C16.3559 15.0417 17.4167 13.9808 17.4167 12.6667C17.4167 11.3525 16.3559 10.2917 15.0417 10.2917ZM15.0417 13.4583C14.6063 13.4583 14.25 13.1021 14.25 12.6667C14.25 12.2313 14.6063 11.875 15.0417 11.875C15.4771 11.875 15.8334 12.2313 15.8334 12.6667C15.8334 13.1021 15.4771 13.4583 15.0417 13.4583Z" fill="black"/>
</g>
</svg>
