<svg width="13" height="13" viewBox="0 0 13 13" fill="none" xmlns="http://www.w3.org/2000/svg">
<g id="material-symbols:info-outline">
<path id="Vector" d="M5.95837 9.20833H7.04171V5.95833H5.95837V9.20833ZM6.50004 4.87499C6.65351 4.87499 6.78225 4.82299 6.88625 4.719C6.99025 4.615 7.04207 4.48644 7.04171 4.33333C7.04135 4.18022 6.98935 4.05166 6.88571 3.94766C6.78207 3.84366 6.65351 3.79166 6.50004 3.79166C6.34657 3.79166 6.21801 3.84366 6.11437 3.94766C6.01074 4.05166 5.95874 4.18022 5.95837 4.33333C5.95801 4.48644 6.01001 4.61518 6.11437 4.71954C6.21874 4.8239 6.34729 4.87572 6.50004 4.87499ZM6.50004 11.9167C5.75074 11.9167 5.04657 11.7744 4.38754 11.4898C3.72851 11.2053 3.15525 10.8194 2.66775 10.3323C2.18025 9.84515 1.7944 9.27188 1.51021 8.61249C1.22601 7.95311 1.08374 7.24894 1.08337 6.5C1.08301 5.75105 1.22529 5.04688 1.51021 4.3875C1.79512 3.72811 2.18097 3.15484 2.66775 2.6677C3.15453 2.18056 3.72779 1.79472 4.38754 1.51016C5.04729 1.22561 5.75146 1.08333 6.50004 1.08333C7.24862 1.08333 7.95279 1.22561 8.61254 1.51016C9.27229 1.79472 9.84556 2.18056 10.3323 2.6677C10.8191 3.15484 11.2051 3.72811 11.4904 4.3875C11.7757 5.04688 11.9178 5.75105 11.9167 6.5C11.9156 7.24894 11.7733 7.95311 11.4899 8.61249C11.2064 9.27188 10.8206 9.84515 10.3323 10.3323C9.84411 10.8194 9.27085 11.2055 8.61254 11.4904C7.95424 11.7753 7.25007 11.9174 6.50004 11.9167ZM6.50004 10.8333C7.70976 10.8333 8.73442 10.4135 9.574 9.57395C10.4136 8.73437 10.8334 7.70972 10.8334 6.5C10.8334 5.29027 10.4136 4.26562 9.574 3.42604C8.73442 2.58645 7.70976 2.16666 6.50004 2.16666C5.29032 2.16666 4.26567 2.58645 3.42608 3.42604C2.5865 4.26562 2.16671 5.29027 2.16671 6.5C2.16671 7.70972 2.5865 8.73437 3.42608 9.57395C4.26567 10.4135 5.29032 10.8333 6.50004 10.8333Z" fill="black"/>
</g>
</svg>
