<svg width="13" height="13" viewBox="0 0 13 13" fill="none" xmlns="http://www.w3.org/2000/svg">
<g id="material-symbols:share-outline">
<path id="Vector" d="M9.20837 11.9167C8.75699 11.9167 8.3733 11.7587 8.05733 11.4427C7.74136 11.1267 7.58337 10.743 7.58337 10.2917C7.58337 10.2375 7.59692 10.1111 7.624 9.91249L3.81879 7.69166C3.67435 7.82708 3.50733 7.93324 3.31775 8.01016C3.12817 8.08708 2.92504 8.12536 2.70837 8.12499C2.25699 8.12499 1.8733 7.96701 1.55733 7.65104C1.24136 7.33506 1.08337 6.95138 1.08337 6.49999C1.08337 6.04861 1.24136 5.66493 1.55733 5.34895C1.8733 5.03298 2.25699 4.87499 2.70837 4.87499C2.92504 4.87499 3.12817 4.91345 3.31775 4.99037C3.50733 5.06729 3.67435 5.17327 3.81879 5.30833L7.624 3.08749C7.60594 3.0243 7.59475 2.96345 7.59042 2.90495C7.58608 2.84645 7.58374 2.78091 7.58337 2.70833C7.58337 2.25694 7.74136 1.87326 8.05733 1.55729C8.3733 1.24131 8.75699 1.08333 9.20837 1.08333C9.65976 1.08333 10.0434 1.24131 10.3594 1.55729C10.6754 1.87326 10.8334 2.25694 10.8334 2.70833C10.8334 3.15972 10.6754 3.5434 10.3594 3.85937C10.0434 4.17534 9.65976 4.33333 9.20837 4.33333C8.99171 4.33333 8.78858 4.29487 8.599 4.21795C8.40942 4.14104 8.2424 4.03505 8.09796 3.89999L4.29275 6.12083C4.3108 6.18402 4.32218 6.24505 4.32687 6.30391C4.33157 6.36277 4.33374 6.42813 4.33337 6.49999C4.33301 6.57186 4.33085 6.6374 4.32687 6.69662C4.3229 6.75584 4.31153 6.81669 4.29275 6.87916L8.09796 9.09999C8.2424 8.96458 8.40942 8.85859 8.599 8.78204C8.78858 8.70548 8.99171 8.66702 9.20837 8.66666C9.65976 8.66666 10.0434 8.82465 10.3594 9.14062C10.6754 9.45659 10.8334 9.84027 10.8334 10.2917C10.8334 10.743 10.6754 11.1267 10.3594 11.4427C10.0434 11.7587 9.65976 11.9167 9.20837 11.9167ZM9.20837 10.8333C9.36185 10.8333 9.49058 10.7815 9.59458 10.6779C9.69858 10.5742 9.7504 10.4455 9.75004 10.2917C9.74968 10.1378 9.69768 10.0093 9.59404 9.90599C9.4904 9.80272 9.36185 9.75072 9.20837 9.74999C9.0549 9.74927 8.92635 9.80127 8.82271 9.90599C8.71907 10.0107 8.66707 10.1393 8.66671 10.2917C8.66635 10.444 8.71835 10.5728 8.82271 10.6779C8.92707 10.783 9.05562 10.8348 9.20837 10.8333ZM2.70837 7.04166C2.86185 7.04166 2.99058 6.98966 3.09458 6.88566C3.19858 6.78166 3.2504 6.65311 3.25004 6.49999C3.24968 6.34688 3.19768 6.21833 3.09404 6.11433C2.9904 6.01033 2.86185 5.95833 2.70837 5.95833C2.5549 5.95833 2.42635 6.01033 2.32271 6.11433C2.21907 6.21833 2.16707 6.34688 2.16671 6.49999C2.16635 6.65311 2.21835 6.78184 2.32271 6.8862C2.42707 6.99056 2.55562 7.04238 2.70837 7.04166ZM9.20837 3.24999C9.36185 3.24999 9.49058 3.19799 9.59458 3.09399C9.69858 2.98999 9.7504 2.86144 9.75004 2.70833C9.74968 2.55522 9.69768 2.42666 9.59404 2.32266C9.4904 2.21866 9.36185 2.16666 9.20837 2.16666C9.0549 2.16666 8.92635 2.21866 8.82271 2.32266C8.71907 2.42666 8.66707 2.55522 8.66671 2.70833C8.66635 2.86144 8.71835 2.99018 8.82271 3.09454C8.92707 3.1989 9.05562 3.25072 9.20837 3.24999Z" fill="black"/>
</g>
</svg>
